<?xml version="1.0" encoding="UTF-8"?><svg id="Camada_1" xmlns="http://www.w3.org/2000/svg" width="247.3mm" height="78.8mm" viewBox="0 0 700.9 223.3"><defs><style>.cls-1{fill:#005d2f;}.cls-2{fill:#d12d26;}.cls-3{fill:#5baa48;stroke:#5baa48;stroke-miterlimit:10;stroke-width:.2px;}.cls-4{fill:#e30613;}.cls-5{fill:#233760;}</style></defs><path class="cls-5" d="M95.8,135.5c0,6.1-1.1,11.5-3.4,16.3-2.3,4.8-5.5,8.8-9.6,12.1-4.2,3.3-9.1,5.7-14.9,7.4-5.7,1.7-12.1,2.5-19,2.5s-8.3-.3-12.1-1c-3.8-.7-7.3-1.5-10.3-2.5-3.1-1-5.6-2.1-7.8-3.2-2.1-1.1-3.7-2.1-4.6-3-1-.9-1.7-2.1-2.1-3.7-.4-1.6-.7-3.8-.7-6.5s0-3.1.3-4.2c.2-1.1.4-2.1.7-2.8.3-.7.6-1.2,1.1-1.5.5-.3,1-.5,1.7-.5,1,0,2.4.6,4.3,1.8,1.9,1.2,4.2,2.5,7,3.9,2.8,1.4,6.1,2.7,9.9,3.9,3.8,1.2,8.2,1.8,13.1,1.8s7.1-.4,10.1-1.2c3-.8,5.6-2,7.8-3.5,2.2-1.5,3.9-3.5,5.1-5.9,1.2-2.4,1.8-5.2,1.8-8.5s-.9-6.2-2.6-8.5c-1.7-2.3-4-4.3-6.8-6.1-2.8-1.8-6-3.3-9.6-4.7-3.5-1.4-7.2-2.8-10.9-4.3-3.8-1.5-7.4-3.2-11-5.1-3.6-1.9-6.8-4.2-9.6-7-2.8-2.7-5.1-6-6.8-9.8-1.7-3.8-2.6-8.4-2.6-13.7s.9-9.2,2.7-13.5c1.8-4.3,4.5-8,8.2-11.3,3.6-3.2,8.2-5.8,13.6-7.8,5.4-1.9,11.8-2.9,19-2.9s6.4.3,9.6.8,6.1,1.2,8.6,2c2.6.8,4.8,1.7,6.6,2.6,1.8.9,3.2,1.7,4.1,2.5.9.7,1.5,1.3,1.9,1.9.3.5.5,1.1.7,1.8.1.7.3,1.5.4,2.5.1,1,.2,2.2.2,3.6s0,2.8-.2,3.9c-.1,1.1-.4,2-.7,2.7-.3.7-.7,1.2-1.1,1.5-.4.3-.9.5-1.5.5-.8,0-1.9-.5-3.4-1.5-1.5-1-3.4-2-5.8-3.1-2.4-1.1-5.2-2.1-8.4-3.1-3.2-1-6.9-1.5-11.1-1.5s-7,.4-9.8,1.3c-2.8.8-5.2,2-7,3.6-1.8,1.5-3.2,3.4-4.1,5.5-.9,2.1-1.4,4.4-1.4,6.9s.9,6.3,2.7,8.7c1.8,2.3,4.1,4.4,6.9,6.2,2.8,1.8,6.1,3.4,9.7,4.8,3.6,1.4,7.3,2.9,11.1,4.4,3.8,1.5,7.5,3.2,11.1,5,3.7,1.9,6.9,4.1,9.7,6.8,2.8,2.7,5.1,5.8,6.8,9.6,1.7,3.7,2.6,8.1,2.6,13.3Z"/><path class="cls-5" d="M213,149.8c0,1.5,0,2.8-.1,3.9,0,1.1-.2,2-.5,2.8-.2.8-.5,1.4-.8,2-.3.6-1,1.4-2.1,2.5s-3,2.5-5.6,4.1c-2.7,1.6-5.6,3.1-9,4.4-3.3,1.3-6.9,2.3-10.8,3.1-3.9.8-7.9,1.2-12.1,1.2-8.6,0-16.2-1.4-22.8-4.2s-12.2-7-16.6-12.4c-4.5-5.4-7.9-12.1-10.2-20-2.3-7.9-3.5-17-3.5-27.4s1.4-21.9,4.3-30.3c2.9-8.4,6.8-15.4,11.8-20.8,5-5.4,10.9-9.4,17.6-12,6.8-2.6,14.1-3.9,22-3.9s7.5.4,11.1,1.1c3.6.7,6.9,1.6,9.9,2.8,3,1.2,5.7,2.5,8,4,2.3,1.5,4,2.8,5.1,3.8s1.8,1.9,2.2,2.5c.4.6.7,1.3,1,2.2.3.8.4,1.8.5,2.9,0,1.1.1,2.4.1,4,0,3.4-.4,5.9-1.2,7.2-.8,1.4-1.8,2.1-2.9,2.1s-2.9-.7-4.6-2.2c-1.7-1.5-3.9-3.1-6.6-4.8-2.7-1.8-5.9-3.4-9.6-4.8-3.8-1.5-8.2-2.2-13.3-2.2-10.5,0-18.6,4-24.2,12.1-5.6,8.1-8.4,19.8-8.4,35.2s.7,14.4,2.2,20.2c1.5,5.8,3.6,10.6,6.4,14.5,2.8,3.9,6.3,6.8,10.4,8.7,4.1,1.9,8.8,2.9,14.1,2.9s9.5-.8,13.3-2.4c3.8-1.6,7.1-3.3,9.9-5.2,2.8-1.9,5.1-3.6,7-5.2,1.9-1.5,3.4-2.3,4.4-2.3s1.1.2,1.6.5c.4.4.8,1,1.1,1.8.3.8.5,1.9.7,3.2.1,1.3.2,2.8.2,4.6Z"/><path class="cls-5" d="M350.8,106.9c0,9.7-1.3,18.7-3.8,26.9-2.6,8.2-6.4,15.2-11.5,21.2-5.1,5.9-11.5,10.5-19.1,13.9-7.6,3.3-16.5,5-26.6,5s-18.4-1.5-25.7-4.4c-7.3-2.9-13.4-7.2-18.2-12.7-4.9-5.6-8.5-12.3-10.9-20.3s-3.6-17-3.6-27.1,1.3-18.7,3.8-26.9c2.5-8.2,6.3-15.2,11.4-21.2,5.1-5.9,11.4-10.5,19-13.8,7.6-3.3,16.5-4.9,26.7-4.9s18.4,1.5,25.7,4.4c7.3,2.9,13.4,7.2,18.2,12.7,4.9,5.6,8.5,12.3,10.9,20.3,2.4,8,3.6,16.9,3.6,26.9ZM328.1,108.4c0-6.5-.6-12.6-1.8-18.3-1.2-5.7-3.2-10.8-6-15.1-2.8-4.3-6.5-7.8-11.2-10.3-4.7-2.5-10.6-3.8-17.7-3.8s-12.1,1.2-16.8,3.4c-4.7,2.3-8.5,5.5-11.6,9.7-3,4.2-5.3,9.2-6.8,14.9-1.5,5.7-2.2,12-2.2,18.8s.6,12.7,1.8,18.4c1.2,5.7,3.2,10.8,6,15.1,2.8,4.3,6.6,7.7,11.3,10.2,4.7,2.5,10.6,3.8,17.7,3.8s12-1.1,16.7-3.4c4.7-2.3,8.6-5.5,11.6-9.7,3-4.2,5.3-9.1,6.7-14.9,1.4-5.7,2.1-12.1,2.1-19Z"/><path class="cls-5" d="M485.3,168c0,.7-.2,1.3-.5,1.8-.3.5-.9.9-1.7,1.3s-1.8.6-3.1.8c-1.3.2-2.9.3-4.7.3s-3.7,0-5-.3c-1.3-.2-2.3-.4-3.1-.8-.8-.4-1.3-.8-1.5-1.3-.3-.5-.4-1.1-.4-1.8v-15.8c-6.8,7.5-13.5,13-20.2,16.4s-13.4,5.2-20.2,5.2-14.7-1.3-20.1-4c-5.4-2.7-9.8-6.3-13.2-10.8-3.4-4.6-5.8-9.9-7.2-15.9-1.5-6.1-2.2-13.4-2.2-22.1V48.6c0-.7.2-1.3.5-1.8.3-.5.9-.9,1.8-1.3.9-.4,2-.7,3.4-.8,1.4-.1,3.2-.2,5.3-.2s3.9,0,5.3.2c1.4.1,2.5.4,3.4.8.8.4,1.4.8,1.8,1.3.4.5.5,1.1.5,1.8v69.5c0,7,.5,12.6,1.5,16.8,1,4.2,2.6,7.8,4.6,10.7,2.1,3,4.7,5.3,7.9,6.9,3.2,1.6,6.9,2.5,11.1,2.5s10.9-1.9,16.4-5.8c5.4-3.9,11.2-9.6,17.3-17.1V48.6c0-.7.2-1.3.5-1.8.3-.5.9-.9,1.8-1.3.9-.4,2-.7,3.4-.8,1.4-.1,3.2-.2,5.4-.2s3.9,0,5.3.2c1.4.1,2.5.4,3.3.8.8.4,1.4.8,1.8,1.3.4.5.6,1.1.6,1.8v119.4Z"/><path class="cls-5" d="M587.8,159.2c0,2.6-.2,4.6-.5,6.1-.4,1.5-.9,2.6-1.6,3.3-.7.7-1.8,1.4-3.2,2-1.4.6-3,1.1-4.8,1.5-1.8.4-3.7.7-5.8,1-2,.3-4.1.4-6.1.4-6.2,0-11.5-.8-15.9-2.5-4.4-1.6-8-4.1-10.9-7.4-2.8-3.3-4.9-7.5-6.2-12.6-1.3-5.1-1.9-11.1-1.9-18V63.3h-16.7c-1.3,0-2.4-.7-3.2-2.1-.8-1.4-1.2-3.7-1.2-6.9s.1-3.1.3-4.2c.2-1.1.5-2.1.9-2.9.4-.8.8-1.3,1.4-1.6.6-.3,1.2-.5,1.9-.5h16.6v-28.4c0-.6.2-1.2.5-1.7.3-.5.9-1,1.7-1.4.8-.4,2-.7,3.4-.9,1.4-.2,3.2-.3,5.3-.3s4,0,5.4.3c1.4.2,2.5.5,3.3.9.8.4,1.4.9,1.7,1.4.4.5.5,1.1.5,1.7v28.4h30.6c.7,0,1.3.2,1.9.5.5.3,1,.8,1.4,1.6.4.8.7,1.7.9,2.9.2,1.2.3,2.6.3,4.2,0,3.2-.4,5.5-1.2,6.9-.8,1.4-1.9,2.1-3.2,2.1h-30.6v66.6c0,8.2,1.2,14.4,3.6,18.6,2.4,4.2,6.8,6.3,13.1,6.3s3.8-.2,5.4-.6c1.6-.4,3-.8,4.2-1.3,1.2-.4,2.3-.9,3.2-1.3.9-.4,1.7-.6,2.4-.6s.9.1,1.3.3c.4.2.7.6.9,1.3.2.6.4,1.5.6,2.5s.3,2.4.3,4Z"/><path class="cls-5" d="M691.7,135.5c0,6.1-1.1,11.5-3.4,16.3-2.3,4.8-5.5,8.8-9.6,12.1-4.2,3.3-9.1,5.7-14.9,7.4-5.7,1.7-12.1,2.5-19,2.5s-8.3-.3-12.1-1c-3.8-.7-7.3-1.5-10.3-2.5-3.1-1-5.6-2.1-7.8-3.2-2.1-1.1-3.7-2.1-4.6-3-1-.9-1.7-2.1-2.1-3.7-.4-1.6-.7-3.8-.7-6.5s0-3.1.3-4.2c.2-1.1.4-2.1.7-2.8.3-.7.6-1.2,1.1-1.5.5-.3,1-.5,1.7-.5,1,0,2.4.6,4.3,1.8,1.9,1.2,4.2,2.5,7,3.9,2.8,1.4,6.1,2.7,9.9,3.9,3.8,1.2,8.2,1.8,13.1,1.8s7.1-.4,10.1-1.2c3-.8,5.6-2,7.8-3.5,2.2-1.5,3.9-3.5,5.1-5.9,1.2-2.4,1.8-5.2,1.8-8.5s-.9-6.2-2.6-8.5c-1.7-2.3-4-4.3-6.8-6.1-2.8-1.8-6-3.3-9.6-4.7-3.5-1.4-7.2-2.8-10.9-4.3-3.8-1.5-7.4-3.2-11-5.1-3.6-1.9-6.8-4.2-9.6-7-2.8-2.7-5.1-6-6.8-9.8-1.7-3.8-2.6-8.4-2.6-13.7s.9-9.2,2.7-13.5c1.8-4.3,4.5-8,8.2-11.3,3.6-3.2,8.2-5.8,13.6-7.8,5.4-1.9,11.8-2.9,19-2.9s6.4.3,9.6.8,6.1,1.2,8.6,2c2.6.8,4.8,1.7,6.6,2.6,1.8.9,3.2,1.7,4.1,2.5.9.7,1.5,1.3,1.9,1.9.3.5.5,1.1.7,1.8.1.7.3,1.5.4,2.5.1,1,.2,2.2.2,3.6s0,2.8-.2,3.9c-.1,1.1-.4,2-.7,2.7-.3.7-.7,1.2-1.1,1.5-.4.3-.9.5-1.5.5-.8,0-1.9-.5-3.4-1.5-1.5-1-3.4-2-5.8-3.1-2.4-1.1-5.2-2.1-8.4-3.1-3.2-1-6.9-1.5-11.1-1.5s-7,.4-9.8,1.3c-2.8.8-5.2,2-7,3.6-1.8,1.5-3.2,3.4-4.1,5.5-.9,2.1-1.4,4.4-1.4,6.9s.9,6.3,2.7,8.7c1.8,2.3,4.1,4.4,6.9,6.2,2.8,1.8,6.1,3.4,9.7,4.8,3.6,1.4,7.3,2.9,11.1,4.4,3.8,1.5,7.5,3.2,11.1,5,3.7,1.9,6.9,4.1,9.7,6.8s5.1,5.8,6.8,9.6c1.7,3.7,2.6,8.1,2.6,13.3Z"/><rect class="cls-1" x="387.3" y="185.5" width="92.5" height="32.1"/><rect class="cls-4" x="492.2" y="185.5" width="197.6" height="32.1"/><path class="cls-3" d="M168.3,83.6c-.6,8.7-.5,12.7,3.4,16.5,1.2,1.2,7.3,6,7.9,7.1s1.7,4.5.4,3.8-10.9-6.4-12.3-7.2-10-3.4.5-20.2Z"/><path class="cls-3" d="M169.7,79.2c2.3.5,18.7.6,18.1,10.8,0,2.3,0,5.5,0,7.4s.6,8,1.8,10.2c-4.5.7-5.2-5.5-5.2-7.9.4-7.1-3.7-14.5-14.7-20.6Z"/><path class="cls-3" d="M190,93.4c5.9-13.8,19.4-6.6,19.4-1.8.4,2.6,0,5-.5,6.4s-1.1,2.4-.3,3.5l.9,1.1h-3.2c-1.4-1.3-3.6-3.4-4.9-4.1-1.7-1.1-6-1.1-5.6,5.2l-2.5.8s-.3-1.1,0-2.7c.3-3.5,4.1-9.3,10.7-4.4,1.1.8,1.8,2.2,1.8,2.2.4-1.4,1.9-6.1.5-8.4-.8-2.4-9.1-7.1-16.4,2.2Z"/><path class="cls-3" d="M195.9,111.1c1,.9,2.4,8.7,8.8,7.8-1.2.8-5,3-8-2.9l-2.5-4.5,1.7-.4Z"/><path class="cls-3" d="M195.7,120.4c.7.6,2.5,2.3,3.1,2.9,1.9,1.7,1.5,4.1,1,4.8s-1.5,1.5-1.5,2.4,0,2.8-.3,2.1-.8-2.1-.3-4.4c.2-1.1.4-2.1-.5-3.3s-2.9-4.2-2.9-4.2l1.5-.3Z"/><path class="cls-3" d="M189.6,123.7c.3.9,1,1.9,1.4,5,.6,2.4,2.1,4.9,5.6,5.7-1.2,0-5.2.8-5.9-2.1-.5-1.7-1.3-6.7-2.4-7.9-.5-.7,1.4-.7,1.4-.7Z"/><path class="cls-3" d="M181.4,117.9c.6.6,8.8,10.4,2,13.6,0-.6,0-.7.3-1,.9-1,.7-4.9-.6-7.1-.8-1.5-2.6-4.4-3-4.6s1.3-1,1.3-1Z"/><path class="cls-3" d="M171.1,113.2c-1.4-.7-3.5-.7-3.5.7s.1,3.7.4,4.9,2,5.4-2.8,6.2c.1-1.1.7-2.5-.8-2.7s-9.9-1.9-9.9-9.5.3-7.7,9-7.6c-2.6,1.6-6.3,4.2-6.3,7.7s6,7.6,9.1,7.9c0-1-.7-1-1-2.6-.9-2.6-.3-7.3,4.3-7.3s4.1,2,7,2.1c-2.3.5-5.5.2-5.5.2Z"/><path class="cls-2" d="M202,111.9c-2.3-1.7-6.6-8.9-6.7-11.3-8.8,14-10.8.5-9.9-3.3-2.3,3.1-10,6.1-12.3,6.1,5,1.7,6.6,5.5,6.5,6.3s-.8,3.4-9.3,3.1c2.7,1.9,5.9,8.3,6.3,11.2,3-5.2,5.8-5.7,6.7-5.7,2.3,0,3.5,4.8,3.1,8.7,1.9-2.7,8.9-6.1,11.7-6.2-4.7-2.6-5.8-4.8-5.9-5.8s1.2-4.4,9.9-3.1ZM192.7,120.6c-.8.3-1.8.3-3.4,1.5,0-1.2-.3-6.3-5.5-6.6-1.4-.1-4.3.3-6.8,3.5-.2-1-.7-2.6-1.7-4,.9.2,6.7,0,7.4-4.7,0-1.2-.7-4.3-3.5-5.8.7-.3,3.1-1.2,3.8-2.1-.4,6.1,4.6,7.5,5.5,7.4s5-.6,6.4-3.7c.2,1.1,1,2.3,1.8,3.5-1.3,0-6.9.5-7.4,5.5,0,1.1.8,3.5,3.3,5.6Z"/></svg>