<?xml version="1.0" encoding="UTF-8"?><svg id="Camada_1" xmlns="http://www.w3.org/2000/svg" width="105.8mm" height="46.2mm" viewBox="0 0 299.8 131"><defs><style>.cls-1{stroke:#5baa48;stroke-miterlimit:10;stroke-width:.2px;}.cls-1,.cls-2{fill:#1d1d1b;}</style></defs><rect class="cls-2" x="36.5" y="94.2" width="67.4" height="20.1"/><rect class="cls-2" x="115.8" y="94.2" width="147.5" height="20.1"/><path class="cls-1" d="M134.4,36c-.4,5.4-.3,7.8,2.1,10.2.8.8,4.5,3.7,4.9,4.4s1,2.8.3,2.3-6.7-3.9-7.6-4.5-6.2-2.1.3-12.5Z"/><path class="cls-1" d="M135.2,33.3c1.4.3,11.5.4,11.1,6.6,0,1.4,0,3.4,0,4.6s.4,4.9,1.1,6.3c-2.8.4-3.2-3.4-3.2-4.8.2-4.4-2.3-8.9-9.1-12.7Z"/><path class="cls-1" d="M147.7,42.1c3.6-8.5,12-4,12-1.1.3,1.6,0,3.1-.3,3.9s-.7,1.5-.2,2.2l.5.7h-2c-.9-.8-2.2-2.1-3-2.6-1-.7-3.7-.7-3.4,3.2l-1.5.5s-.2-.7,0-1.7c.2-2.2,2.5-5.8,6.6-2.7.7.5,1.1,1.4,1.1,1.4.3-.9,1.2-3.8.3-5.2-.5-1.5-5.6-4.4-10.1,1.4Z"/><path class="cls-1" d="M151.4,53c.6.5,1.5,5.3,5.4,4.8-.8.5-3.1,1.9-4.9-1.8l-1.5-2.8,1-.2Z"/><path class="cls-1" d="M151.3,58.7c.4.4,1.6,1.4,1.9,1.8,1.2,1.1.9,2.5.6,3s-.9.9-.9,1.5,0,1.7-.2,1.3-.5-1.3-.2-2.7c.1-.7.3-1.3-.3-2s-1.8-2.6-1.8-2.6l.9-.2Z"/><path class="cls-1" d="M147.5,60.8c.2.6.6,1.2.9,3.1.4,1.5,1.3,3,3.4,3.5-.7,0-3.2.5-3.6-1.3-.3-1-.8-4.1-1.5-4.9-.3-.4.8-.4.8-.4Z"/><path class="cls-1" d="M142.5,57.2c.4.4,5.4,6.4,1.2,8.4,0-.4,0-.4.2-.6.5-.6.4-3-.4-4.4-.5-.9-1.6-2.7-1.9-2.8s.8-.6.8-.6Z"/><path class="cls-1" d="M136.1,54.3c-.9-.4-2.2-.4-2.2.4s0,2.3.3,3,1.2,3.3-1.7,3.8c0-.7.4-1.5-.5-1.7s-6.1-1.2-6.1-5.9.2-4.7,5.5-4.7c-1.6,1-3.9,2.6-3.9,4.7s3.7,4.7,5.6,4.9c0-.6-.4-.6-.6-1.6-.5-1.6-.2-4.5,2.7-4.5s2.5,1.2,4.3,1.3c-1.4.3-3.4.1-3.4.1Z"/><path class="cls-2" d="M155.2,53.5c-1.4-1-4.1-5.5-4.2-7-5.4,8.6-6.7.3-6.1-2-1.4,1.9-6.1,3.7-7.6,3.7,3.1,1.1,4.1,3.4,4,3.9s-.5,2.1-5.7,1.9c1.6,1.1,3.7,5.1,3.9,6.9,1.9-3.2,3.6-3.5,4.1-3.5,1.4,0,2.1,3,1.9,5.3,1.2-1.7,5.5-3.7,7.2-3.8-2.9-1.6-3.6-3-3.6-3.6s.7-2.7,6.1-1.9ZM149.5,58.9c-.5.2-1.1.2-2.1.9,0-.8-.2-3.9-3.4-4.1-.9,0-2.6.2-4.2,2.2-.1-.6-.4-1.6-1.1-2.5.6,0,4.2,0,4.5-2.9,0-.7-.4-2.6-2.2-3.6.4-.2,1.9-.7,2.4-1.3-.3,3.8,2.8,4.6,3.4,4.6s3.1-.4,4-2.3c.1.7.6,1.4,1.1,2.1-.8,0-4.2.3-4.6,3.4,0,.7.5,2.1,2,3.4Z"/><path class="cls-2" d="M81.6,64.5c0,3-.6,5.8-1.7,8.1-1.1,2.4-2.7,4.4-4.7,6.1-2,1.7-4.3,2.9-7,3.7-2.7.8-5.6,1.3-8.7,1.3s-4.2-.2-6.1-.6c-1.9-.4-3.5-.8-5-1.4-1.5-.5-2.7-1.1-3.7-1.7-1-.6-1.7-1.1-2.1-1.5s-.7-.9-.9-1.5c-.2-.6-.3-1.4-.3-2.5s0-1.3.1-1.8c0-.5.2-.9.3-1.2.1-.3.3-.5.5-.6s.4-.2.7-.2c.5,0,1.1.3,2,.9.9.6,2,1.2,3.3,1.9,1.3.7,3,1.3,4.8,1.9,1.9.6,4.1.9,6.6.9s3.6-.3,5.2-.8c1.6-.5,2.9-1.2,4-2.1s2-2.1,2.6-3.4c.6-1.3.9-2.9.9-4.6s-.4-3.4-1.3-4.7c-.8-1.3-1.9-2.5-3.3-3.4-1.4-1-2.9-1.9-4.7-2.7-1.8-.8-3.6-1.7-5.4-2.5-1.8-.9-3.6-1.8-5.4-2.8-1.7-1-3.3-2.3-4.7-3.7-1.4-1.4-2.5-3.1-3.3-4.9-.9-1.9-1.3-4.2-1.3-6.8s.5-5.1,1.5-7.3c1-2.1,2.4-3.9,4.1-5.4,1.8-1.4,3.9-2.5,6.3-3.3,2.4-.8,5.1-1.1,7.9-1.1s2.9.1,4.3.4c1.5.3,2.8.6,4.1,1,1.3.4,2.4.9,3.4,1.4s1.7.9,2,1.3c.3.3.5.6.6.8,0,.2.2.4.3.7,0,.3.1.6.2,1,0,.4,0,.9,0,1.6s0,1.1,0,1.6c0,.5-.1.9-.2,1.2-.1.3-.2.6-.4.7-.2.2-.4.2-.6.2-.4,0-.9-.2-1.7-.7-.8-.5-1.8-1-2.9-1.6-1.1-.6-2.5-1.1-4-1.6-1.6-.5-3.3-.7-5.3-.7s-3.4.2-4.7.7c-1.3.5-2.4,1.1-3.3,1.9-.9.8-1.5,1.8-2,2.9-.4,1.1-.7,2.3-.7,3.5,0,1.8.4,3.4,1.3,4.7.8,1.3,2,2.5,3.3,3.5s3,1.9,4.7,2.8c1.8.8,3.6,1.7,5.4,2.5,1.8.9,3.7,1.8,5.4,2.8,1.8,1,3.4,2.2,4.7,3.6,1.4,1.4,2.5,3,3.4,4.9.9,1.9,1.3,4.1,1.3,6.7Z"/><path class="cls-2" d="M156.7,73.5c0,.5,0,1,0,1.4,0,.4,0,.8-.2,1.1s-.2.6-.3.8c-.1.2-.4.5-.7.9-.3.3-1,.8-2.1,1.5-1.1.7-2.4,1.4-4,2-1.6.7-3.4,1.2-5.5,1.7-2.1.5-4.3.7-6.8.7-4.2,0-8-.7-11.4-2.1-3.4-1.4-6.3-3.5-8.7-6.2-2.4-2.7-4.2-6.1-5.5-10.2-1.3-4-1.9-8.7-1.9-13.9s.7-10.2,2.1-14.4c1.4-4.2,3.3-7.8,5.9-10.7,2.5-2.9,5.5-5.2,9-6.7,3.5-1.5,7.4-2.3,11.6-2.3s3.7.2,5.5.5c1.8.4,3.4.8,4.9,1.3,1.5.5,2.8,1.2,4,1.9,1.2.7,2,1.3,2.4,1.7.5.5.7.8.9,1,.1.2.2.5.3.8,0,.3.2.7.2,1.1,0,.4,0,1,0,1.6s0,1.2-.1,1.7c0,.5-.2.9-.3,1.2s-.3.6-.5.7c-.2.2-.4.2-.7.2-.5,0-1.1-.3-2-1-.8-.7-1.9-1.4-3.3-2.2s-2.9-1.5-4.8-2.2c-1.9-.7-4.2-1-6.8-1s-5.5.6-7.9,1.7c-2.4,1.2-4.4,2.9-6.1,5.1-1.7,2.2-3,5-3.9,8.2-.9,3.2-1.4,6.9-1.4,11.1s.4,7.8,1.3,10.9c.9,3.2,2.2,5.8,3.8,7.9,1.7,2.1,3.7,3.7,6.1,4.8,2.4,1.1,5.2,1.6,8.2,1.6s4.9-.3,6.8-1c1.9-.6,3.6-1.3,5-2.1s2.5-1.5,3.4-2.1c.9-.6,1.6-1,2.1-1s.4,0,.6.2.3.3.4.6c.1.3.2.7.2,1.2,0,.5,0,1.1,0,1.9Z"/><path class="cls-2" d="M208.7,64.2c0,1.1-.2,2-.5,2.6-.3.6-.8,1-1.4,1h-7.3v13.7c0,.3,0,.5-.2.7s-.4.3-.7.5-.8.2-1.3.3c-.6,0-1.3.1-2.1.1s-1.5,0-2.1-.1c-.6,0-1-.2-1.3-.3s-.6-.3-.7-.5c-.1-.2-.2-.4-.2-.7v-13.7h-26.6c-.4,0-.7,0-1-.2s-.5-.3-.7-.6c-.2-.3-.4-.7-.4-1.2,0-.5-.1-1.2-.1-2s0-1.2,0-1.7,0-1,.2-1.4c0-.4.2-.8.4-1.2.2-.4.4-.8.6-1.2l23.2-39.5c.2-.3.4-.5.7-.7s.7-.4,1.3-.5c.5-.1,1.1-.2,1.9-.3.8,0,1.6,0,2.7,0s2.1,0,2.9.1,1.5.2,2,.3c.5.1.9.3,1.2.5.3.2.4.5.4.8v41.5h7.3c.6,0,1,.3,1.4.9.4.6.5,1.5.5,2.7ZM190.8,25h0l-20.9,35.7h21V25Z"/><path class="cls-2" d="M259.6,66c0,2.8-.5,5.3-1.5,7.5-1,2.2-2.5,4-4.3,5.6s-4.2,2.6-7,3.4c-2.8.8-6,1.2-9.5,1.2s-6.3-.4-9-1.1c-2.6-.7-4.9-1.7-6.7-3.1-1.8-1.4-3.2-3.1-4.2-5.1-1-2-1.5-4.3-1.5-6.9s.3-3.9,1-5.6c.7-1.7,1.6-3.3,2.9-4.7,1.3-1.4,2.8-2.8,4.6-4,1.8-1.3,3.9-2.5,6.2-3.6-2-1-3.8-2.1-5.3-3.3-1.5-1.2-2.8-2.4-3.9-3.8-1.1-1.4-1.9-2.8-2.4-4.3-.6-1.5-.8-3.2-.8-5s.4-4.4,1.2-6.4c.8-2,2.1-3.7,3.7-5.2,1.7-1.5,3.8-2.6,6.3-3.5,2.6-.9,5.6-1.3,9-1.3s6.1.4,8.5,1.2,4.4,1.9,5.9,3.2c1.6,1.4,2.7,3,3.4,4.8.7,1.8,1.1,3.8,1.1,5.9s-.3,3.4-.8,4.9c-.6,1.6-1.4,3.1-2.4,4.5-1.1,1.4-2.4,2.7-3.9,3.9-1.6,1.2-3.3,2.4-5.4,3.4,2.4,1.2,4.5,2.4,6.4,3.6,1.9,1.2,3.4,2.6,4.7,4,1.3,1.4,2.2,2.9,2.9,4.5.7,1.6,1,3.3,1,5.3ZM250.9,66.9c0-1.5-.3-2.9-.9-4.2-.6-1.3-1.4-2.4-2.6-3.5-1.2-1.1-2.6-2.1-4.3-3.2-1.7-1-3.7-2.1-6-3.2-2.1,1-4,2.1-5.6,3.1-1.6,1-2.9,2.1-3.9,3.2s-1.8,2.3-2.3,3.5c-.5,1.2-.8,2.6-.8,4,0,3.2,1.1,5.8,3.3,7.5,2.2,1.8,5.6,2.7,10,2.7s7.5-.9,9.7-2.7c2.2-1.8,3.3-4.2,3.3-7.3ZM248.8,32.7c0-1.4-.2-2.7-.7-3.8-.5-1.1-1.2-2.1-2.1-2.9-.9-.8-2.1-1.4-3.5-1.8-1.4-.4-3-.6-4.7-.6-3.6,0-6.4.8-8.2,2.5-1.9,1.6-2.8,3.9-2.8,6.7s.2,2.5.7,3.6c.5,1.1,1.2,2.2,2.1,3.2,1,1,2.2,2,3.6,2.9,1.5,1,3.2,2,5.2,3,3.4-1.7,6-3.7,7.8-5.8s2.7-4.4,2.7-7Z"/><path class="cls-2" d="M91.5,83c0,.2,0,.3,0,.4,0,.1,0,.2-.1.2s-.1,0-.2.1c0,0-.2,0-.3.1-.1,0-.3,0-.4,0-.1,0-.3,0-.4,0-.4,0-.8,0-1.1-.2-.3-.1-.6-.3-.8-.5-.2-.2-.3-.5-.4-.9,0-.4-.1-.8-.1-1.3v-4.9h-1.2c0,0-.2,0-.2-.1,0,0,0-.3,0-.5s0-.2,0-.3c0,0,0-.1,0-.2,0,0,0,0,0-.1,0,0,0,0,.1,0h1.2v-2s0,0,0-.1c0,0,0,0,.1,0,0,0,.1,0,.2,0,0,0,.2,0,.4,0s.3,0,.4,0c0,0,.2,0,.2,0s0,0,.1,0c0,0,0,0,0,.1v2h2.1s0,0,.1,0c0,0,0,0,0,.1,0,0,0,.1,0,.2,0,0,0,.2,0,.3,0,.2,0,.4,0,.5,0,0-.1.1-.2.1h-2.1v4.7c0,.6,0,1,.3,1.3.2.3.5.4.9.4s.3,0,.4,0,.2,0,.3,0c0,0,.2,0,.2,0,0,0,.1,0,.2,0s0,0,0,0c0,0,0,0,0,0,0,0,0,.1,0,.2,0,0,0,.2,0,.3Z"/><path class="cls-2" d="M99.1,83.7c0,0,0,.1,0,.2,0,0-.1,0-.2,0,0,0-.2,0-.4,0s-.3,0-.4,0c0,0-.2,0-.2,0,0,0,0,0,0-.2v-.8c-.4.4-.8.7-1.2.9-.4.2-.9.3-1.4.3s-.8,0-1.2-.2c-.4-.1-.7-.3-.9-.5-.3-.2-.4-.5-.6-.8s-.2-.7-.2-1.1,0-.9.3-1.2c.2-.3.5-.6.8-.9.4-.2.8-.4,1.3-.5.5-.1,1.1-.2,1.8-.2h1.2v-.7c0-.3,0-.6-.1-.9,0-.2-.2-.5-.3-.6-.2-.2-.3-.3-.6-.4s-.5-.1-.9-.1-.7,0-1,.1c-.3,0-.6.2-.8.3-.2.1-.4.2-.6.3-.2,0-.3.1-.3.1s0,0-.1,0c0,0,0,0,0-.1,0,0,0-.1,0-.2,0,0,0-.2,0-.3,0-.2,0-.3,0-.4,0,0,0-.2.2-.3,0,0,.2-.2.4-.3.2-.1.4-.2.7-.3.3,0,.6-.2.9-.2.3,0,.6,0,1,0,.6,0,1.1,0,1.5.2.4.1.8.3,1,.6.3.3.4.6.6,1,.1.4.2.8.2,1.4v5.6ZM97.6,79.8h-1.3c-.4,0-.8,0-1.1.1-.3,0-.6.2-.8.3s-.4.3-.5.5c0,.2-.1.4-.1.7,0,.4.1.8.4,1,.3.3.7.4,1.2.4s.8-.1,1.1-.3.7-.5,1.1-.9v-1.8Z"/><path class="cls-2" d="M103.4,82.9c0,.4,0,.7-.2.9-.1.1-.4.2-.8.2s-.6,0-.8-.2c-.1-.1-.2-.4-.2-.9s0-.7.2-.9.4-.2.8-.2.6,0,.8.2c.1.1.2.4.2.9Z"/></svg>